<svg xmlns="http://www.w3.org/2000/svg" viewBox="0 0 201.6 35.53"><defs><style>.cls-1{fill:#fff;}</style></defs><title>Asset 1scr-white</title><g id="Layer_2" data-name="Layer 2"><g id="Layer_2-2" data-name="Layer 2"><path class="cls-1" d="M9.73,7.83v.34H7.9V7.74C7.9,6,7.12,4.85,5,4.85S2.13,6,2.13,7.9v3.71c0,1.77.82,3,2.89,3S7.9,13.42,7.9,11.75v-.53H9.73v.36c0,2.81-1.49,4.68-4.72,4.68S.26,14.39.26,11.58V7.83C.26,5,1.75,3.15,5,3.15S9.73,5,9.73,7.83Z"/><path class="cls-1" d="M15.13,16.09V11.83L10.61,3.32h2.05l2.19,4.22c.46.87.79,1.6,1.18,2.49h.07c.39-.87.73-1.62,1.21-2.52l2.18-4.19h2L17,11.83v4.26Z"/><path class="cls-1" d="M23.46,3.32h4.83c2.95,0,4.31,1.19,4.31,3.16v.38A2.43,2.43,0,0,1,31,9.41a2.81,2.81,0,0,1,2,2.88v.46c0,2-1.33,3.34-4.31,3.34H23.46Zm4.68,5.45c1.84,0,2.61-.62,2.61-1.86V6.69c0-1.09-.64-1.76-2.66-1.76H25.24V8.77Zm3,3.81v-.22c0-1.43-.95-2.09-2.86-2.09h-3v4.22h3.21C30.44,14.49,31.12,13.74,31.12,12.58Z"/><path class="cls-1" d="M43.57,5h-6V8.75h5.21v1.7H37.58v3.94H44v1.7H35.75V3.32h7.82Z"/><path class="cls-1" d="M55.9,7.54a3.38,3.38,0,0,1-2.62,3.61l2.81,4.94H53.93l-2.51-4.56h-3.2v4.56H46.37V3.32h4.8c3.29,0,4.73,1.61,4.73,3.91Zm-1.85,0v0c0-1.6-.89-2.49-2.93-2.49h-2.9V9.91h2.9C53.14,9.91,54.05,9.07,54.05,7.54Z"/><path class="cls-1" d="M9.57,22.91v.41H7.78v-.26C7.78,21.82,7,21,4.92,21S2,21.75,2,22.86v0c0,1.5,1.41,1.64,3.47,2.1s4.14,1,4.14,3.75v.13c0,1.93-1.65,3.51-4.77,3.51C1.45,32.38,0,30.92,0,28.7v-.48H1.79v.33c0,1.16.58,2.13,3,2.13,2.28,0,2.95-1,2.95-1.86V28.7c0-1.36-1.38-1.69-3.43-2.11s-4.2-.9-4.2-3.71v-.11c0-2.07,1.61-3.52,4.73-3.52S9.57,20.71,9.57,22.91Z"/><path class="cls-1" d="M20.18,21.12h-6v3.73H19.4v1.7H14.19v3.94h6.39v1.7H12.37V19.42h7.81Z"/><path class="cls-1" d="M32,23.93v.34H30.15v-.42c0-1.77-.78-2.9-2.88-2.9s-2.9,1.16-2.9,3.05v3.71c0,1.77.82,2.95,2.9,2.95a2.54,2.54,0,0,0,2.88-2.81v-.53H32v.36c0,2.81-1.48,4.68-4.72,4.68s-4.75-1.87-4.75-4.68V23.93c0-2.81,1.5-4.68,4.77-4.68S32,21.12,32,23.93Z"/><path class="cls-1" d="M36.38,27.63c0,1.77.82,3,3.07,3s3.06-1.24,3.06-3V19.42h1.88v8.26c0,2.81-1.57,4.68-4.94,4.68s-4.92-1.87-4.92-4.68V19.42h1.85Z"/><path class="cls-1" d="M57.11,23.64a3.38,3.38,0,0,1-2.62,3.61l2.81,4.94H55.14l-2.51-4.56h-3.2v4.56H47.57V19.42h4.81c3.28,0,4.73,1.62,4.73,3.92Zm-1.85,0v0c0-1.6-.89-2.49-2.93-2.49h-2.9V26h2.9C54.35,26,55.26,25.18,55.26,23.64Z"/><path class="cls-1" d="M59.84,19.42h1.85V32.19H59.84Z"/><path class="cls-1" d="M67.67,21.12h-4v-1.7h9.83v1.7h-4V32.19H67.67Z"/><path class="cls-1" d="M78.57,32.19V27.93l-4.51-8.51h2l2.2,4.22c.46.87.79,1.6,1.18,2.49h.07c.39-.87.73-1.62,1.2-2.52l2.19-4.19h2l-4.53,8.51v4.26Z"/><path class="cls-1" d="M157.44,15h-4.68v2.88a.5.5,0,0,0,.54.55h4.14a1.72,1.72,0,1,0,0-3.43Z"/><path class="cls-1" d="M172.21,26.37s-.06,0-.08.07l-.83,2.17h1.83l-.84-2.17C172.27,26.39,172.25,26.37,172.21,26.37Z"/><path class="cls-1" d="M161.34,27.32a1,1,0,0,0-1-1H159a.21.21,0,0,0-.21.22v1.72h1.57A1,1,0,0,0,161.34,27.32Z"/><path class="cls-1" d="M158.78,10.61c0-1.07-.77-1.52-1.84-1.52H153.3a.5.5,0,0,0-.54.55v2.65h4.18A1.63,1.63,0,0,0,158.78,10.61Z"/><path class="cls-1" d="M92.43,0V35.53h99.71l9.46-16.59V0Zm72.65,6.34H168V17.77a.51.51,0,0,0,.55.55h6.05v2.81h-7.07a2.25,2.25,0,0,1-2.46-2.47ZM106.94,21.13l-3.22-5.06h-2.94v5.06H97.84V8.8a2.36,2.36,0,0,1,2.46-2.46H105a4.73,4.73,0,0,1,1.69,9.23l3.7,5.56Zm18.24-5.86a6.3,6.3,0,0,1-12.59,0V6.34h2.94v8.93a3.36,3.36,0,0,0,6.71,0V6.34h2.94Zm21.06,5.86H143.3V10.06c0-.29-.12-.4-.31-.4s-.26.07-.38.36l-2.44,6.58c-.55,1.49-1.27,2.12-2.79,2.12s-2.23-.63-2.78-2.12L132.15,10c-.09-.27-.21-.36-.36-.36s-.32.11-.32.4V21.13h-2.94V9.62c0-2.5,1.12-3.38,2.94-3.38,1.51,0,2.48.54,3.47,3.27l2.06,5.7c.08.21.19.32.38.32a.39.39,0,0,0,.38-.32l2.05-5.7c1-2.72,1.95-3.27,3.49-3.27,1.84,0,2.94.88,2.94,3.38Zm6.1,7.57A2.14,2.14,0,0,1,150,30.8a2.58,2.58,0,1,1-.05-5.15,2.39,2.39,0,0,1,2.41,1.69h-.72a1.74,1.74,0,0,0-1.69-1.05A1.83,1.83,0,0,0,148,28.23,1.86,1.86,0,0,0,150,30.17c1,0,1.63-.54,1.63-1.23v0a.1.1,0,0,0-.11-.11h-1.76v-.61H152a.37.37,0,0,1,.37.4Zm4.55,2h-2.75a.66.66,0,0,1-.71-.71V26.42a.67.67,0,0,1,.71-.71h2.72v.64h-2.55a.2.2,0,0,0-.2.21v1.3h2.63v.62h-2.63V29.9a.18.18,0,0,0,.2.2h2.58Zm4.43,0-1.27-1.82h-1.31v1.82h-.68V26.42a.68.68,0,0,1,.71-.71h1.54A1.59,1.59,0,0,1,162,27.32a1.57,1.57,0,0,1-1.26,1.51l1.36,1.91Zm-3.94-9.61h-5.1a2.25,2.25,0,0,1-2.46-2.47V8.8a2.25,2.25,0,0,1,2.46-2.46h4.85c2.56,0,4.63,1.46,4.63,4a3.38,3.38,0,0,1-1.9,3,3.52,3.52,0,0,1,2.45,3.34C162.31,19.38,160.21,21.13,157.38,21.13Zm11.56,9.61h-.67V26.57a.12.12,0,0,0-.13-.14c-.06,0-.1,0-.14.12l-1.23,2.62a.73.73,0,0,1-1.4,0l-1.23-2.62c0-.08-.07-.12-.14-.12s-.12.05-.12.14v4.17h-.68V26.53c0-.56.25-.85.74-.85s.62.16.84.74l1.15,2.45c0,.07.08.1.14.1a.14.14,0,0,0,.14-.1l1.15-2.45c.22-.58.46-.74.85-.74s.73.29.73.85Zm5,0-.57-1.49h-2.32l-.56,1.49h-.69l1.77-4.55c.13-.34.29-.51.64-.51a.64.64,0,0,1,.67.51l1.77,4.55Zm6-.84a.77.77,0,0,1-.78.87c-.39,0-.63-.19-.87-.7l-1.74-3.49c-.05-.11-.11-.19-.21-.19s-.15.07-.15.18v4.17h-.66V26.55a.78.78,0,0,1,.79-.87c.4,0,.61.2.85.71l1.75,3.49c.06.11.11.18.2.18a.16.16,0,0,0,.16-.17V25.71H180Zm3.53-1.31a.76.76,0,0,1-.28.33v1.82h-.68v-1.8a.88.88,0,0,1-.31-.35l-1.51-2.88h.78l1.27,2.47c0,.07.07.09.11.09s.08,0,.11-.09l1.27-2.47H185Zm4-7.46h-8.31a2.25,2.25,0,0,1-2.46-2.47V8.8a2.25,2.25,0,0,1,2.46-2.46h8.21V9.15h-7.18a.5.5,0,0,0-.55.55v2.5H187v2.73H179.6v2.84a.51.51,0,0,0,.55.55h7.28Z"/><path class="cls-1" d="M105,9.15h-3.69a.55.55,0,0,0-.55.55v3.6H105a1.94,1.94,0,0,0,2-2.07A2,2,0,0,0,105,9.15Z"/></g></g></svg>