<?xml version="1.0" encoding="UTF-8"?>
<svg width="744px" height="101px" viewBox="0 0 744 101" version="1.1" xmlns="http://www.w3.org/2000/svg" xmlns:xlink="http://www.w3.org/1999/xlink">
    <!-- Generator: Sketch 62 (91390) - https://sketch.com -->
    <title>logo-boersenzeitung-20201125</title>
    <desc>Created with Sketch.</desc>
    <g id="Page-1" stroke="none" stroke-width="1" fill="none" fill-rule="evenodd">
        <g id="logo-boersenzeitung-20201125" fill="#000000" fill-rule="nonzero">
            <path d="M48.4,36.93 C55.44,38.57 60.38,40.56 63.22,42.89 C67.3,46.21 69.35,50.51 69.35,55.8 C69.35,61.38 67.11,65.99 62.62,69.64 C57.11,74.05 49.11,76.26 38.61,76.26 L0.93,76.26 L0.93,74.24 C4.36,74.24 6.68,73.92 7.9,73.28 C9.12,72.64 9.98,71.81 10.47,70.79 C10.96,69.77 11.21,67.25 11.21,63.24 L11.21,15.11 C11.21,11.1 10.96,8.57 10.47,7.54 C9.98,6.51 9.11,5.67 7.87,5.05 C6.63,4.43 4.32,4.12 0.92,4.12 L0.92,2.1 L36.47,2.1 C44.96,2.1 50.98,2.86 54.52,4.37 C58.06,5.88 60.85,8.14 62.89,11.15 C64.93,14.16 65.95,17.36 65.95,20.75 C65.95,24.32 64.66,27.5 62.07,30.29 C59.49,33.07 54.93,35.29 48.4,36.93 Z M28.5,39.72 L28.5,63.51 L28.45,66.24 C28.45,68.21 28.95,69.69 29.95,70.7 C30.95,71.7 32.44,72.2 34.41,72.2 C37.33,72.2 40.02,71.55 42.48,70.26 C44.94,68.97 46.83,67.09 48.14,64.63 C49.45,62.17 50.11,59.43 50.11,56.4 C50.11,52.94 49.31,49.83 47.7,47.08 C46.1,44.33 43.89,42.4 41.08,41.31 C38.27,40.21 34.08,39.68 28.5,39.72 Z M28.5,35.45 C33.68,35.45 37.5,34.87 39.96,33.7 C42.42,32.53 44.31,30.89 45.62,28.78 C46.93,26.67 47.59,23.97 47.59,20.69 C47.59,17.41 46.94,14.72 45.65,12.62 C44.36,10.52 42.51,8.93 40.1,7.83 C37.69,6.73 33.83,6.21 28.51,6.24 L28.51,35.45 L28.5,35.45 Z" id="Shape"></path>
            <path d="M101.18,23.59 C105.63,23.59 109.77,24.74 113.59,27.04 C117.41,29.34 120.33,32.6 122.31,36.83 C124.3,41.06 125.29,45.69 125.29,50.72 C125.29,57.98 123.45,64.05 119.77,68.93 C115.32,74.84 109.18,77.79 101.34,77.79 C93.65,77.79 87.72,75.09 83.57,69.7 C79.41,64.3 77.34,58.05 77.34,50.94 C77.34,43.61 79.46,37.22 83.71,31.77 C87.95,26.31 93.78,23.59 101.18,23.59 Z M91.12,1.38 C93.16,1.38 94.88,2.09 96.29,3.51 C97.69,4.93 98.4,6.65 98.4,8.65 C98.4,10.66 97.69,12.37 96.27,13.79 C94.85,15.21 93.13,15.92 91.13,15.92 C89.12,15.92 87.41,15.21 85.99,13.79 C84.57,12.37 83.86,10.65 83.86,8.65 C83.86,6.65 84.57,4.93 85.99,3.51 C87.41,2.09 89.11,1.38 91.12,1.38 Z M101.4,27.47 C99.54,27.47 97.95,28.17 96.61,29.58 C95.28,30.98 94.4,33.75 93.98,37.89 C93.56,42.03 93.35,47.78 93.35,55.14 C93.35,59.04 93.6,62.69 94.12,66.08 C94.52,68.67 95.38,70.64 96.69,71.99 C98,73.34 99.5,74.01 101.17,74.01 C102.81,74.01 104.18,73.55 105.27,72.64 C106.69,71.4 107.64,69.67 108.11,67.44 C108.84,63.98 109.2,56.98 109.2,46.44 C109.2,40.24 108.85,35.99 108.16,33.67 C107.47,31.36 106.45,29.67 105.1,28.61 C104.17,27.85 102.93,27.47 101.4,27.47 Z M111.57,1.38 C113.61,1.38 115.33,2.09 116.74,3.51 C118.14,4.93 118.85,6.65 118.85,8.65 C118.85,10.66 118.14,12.37 116.72,13.79 C115.3,15.21 113.58,15.92 111.58,15.92 C109.57,15.92 107.86,15.21 106.44,13.79 C105.02,12.37 104.31,10.65 104.31,8.65 C104.31,6.65 105.02,4.93 106.44,3.51 C107.86,2.09 109.56,1.38 111.57,1.38 Z" id="Shape"></path>
            <path d="M154.28,25.12 L154.28,36.71 C157.67,31.42 160.64,27.91 163.19,26.18 C165.74,24.45 168.2,23.58 170.57,23.58 C172.61,23.58 174.24,24.21 175.46,25.47 C176.68,26.73 177.29,28.51 177.29,30.8 C177.29,33.24 176.7,35.14 175.51,36.49 C174.32,37.84 172.89,38.51 171.22,38.51 C169.29,38.51 167.61,37.89 166.19,36.65 C164.77,35.41 163.93,34.72 163.67,34.57 C163.31,34.35 162.89,34.24 162.41,34.24 C161.35,34.24 160.35,34.64 159.4,35.44 C157.9,36.68 156.77,38.45 156.01,40.74 C154.84,44.28 154.26,48.18 154.26,52.44 L154.26,64.2 L154.31,67.26 C154.31,69.34 154.44,70.67 154.69,71.25 C155.13,72.23 155.77,72.95 156.63,73.41 C157.49,73.87 158.94,74.15 160.98,74.26 L160.98,76.23 L133.36,76.23 L133.36,74.26 C135.58,74.08 137.09,73.47 137.87,72.43 C138.65,71.39 139.05,68.65 139.05,64.2 L139.05,35.93 C139.05,33.01 138.9,31.15 138.61,30.35 C138.25,29.33 137.72,28.58 137.02,28.11 C136.33,27.64 135.11,27.31 133.36,27.13 L133.36,25.11 L154.28,25.11 L154.28,25.12 Z" id="Path"></path>
            <path d="M215.09,23.7 L215.91,41.15 L214.05,41.15 C211.83,35.97 209.52,32.44 207.13,30.54 C204.74,28.64 202.36,27.7 199.99,27.7 C198.49,27.7 197.22,28.2 196.16,29.2 C195.1,30.2 194.57,31.36 194.57,32.67 C194.57,33.65 194.93,34.6 195.66,35.51 C196.83,37.01 200.09,39.57 205.45,43.19 C210.81,46.82 214.34,49.9 216.03,52.43 C217.73,54.96 218.57,57.8 218.57,60.93 C218.57,63.77 217.86,66.56 216.44,69.3 C215.02,72.04 213.01,74.13 210.42,75.59 C207.83,77.05 204.97,77.78 201.83,77.78 C199.39,77.78 196.12,77.01 192.04,75.48 C190.95,75.08 190.2,74.88 189.8,74.88 C188.6,74.88 187.59,75.79 186.79,77.61 L184.99,77.61 L184.11,59.23 L186,59.23 C187.64,64.04 189.89,67.65 192.75,70.06 C195.61,72.47 198.32,73.67 200.87,73.67 C202.62,73.67 204.05,73.13 205.16,72.06 C206.27,70.98 206.83,69.68 206.83,68.15 C206.83,66.4 206.28,64.89 205.19,63.61 C204.1,62.33 201.65,60.4 197.86,57.81 C192.28,53.95 188.67,50.99 187.03,48.95 C184.62,45.96 183.42,42.66 183.42,39.05 C183.42,35.11 184.78,31.55 187.49,28.36 C190.21,25.17 194.13,23.57 199.28,23.57 C202.05,23.57 204.73,24.24 207.32,25.59 C208.3,26.14 209.11,26.41 209.73,26.41 C210.39,26.41 210.91,26.27 211.32,26 C211.72,25.73 212.36,24.95 213.23,23.68 L215.09,23.68 L215.09,23.7 Z" id="Path"></path>
            <path d="M269.67,48.85 L241.62,48.85 C241.95,55.63 243.75,60.99 247.03,64.93 C249.55,67.96 252.57,69.47 256.11,69.47 C258.3,69.47 260.28,68.86 262.07,67.64 C263.86,66.42 265.77,64.22 267.81,61.05 L269.67,62.25 C266.9,67.9 263.84,71.9 260.48,74.25 C257.13,76.6 253.24,77.78 248.83,77.78 C241.25,77.78 235.5,74.86 231.6,69.03 C228.46,64.33 226.9,58.49 226.9,51.53 C226.9,43 229.21,36.21 233.82,31.16 C238.43,26.11 243.84,23.59 250.03,23.59 C255.21,23.59 259.7,25.71 263.51,29.96 C267.33,34.2 269.38,40.5 269.67,48.85 Z M256.22,45.19 C256.22,39.32 255.9,35.29 255.26,33.1 C254.62,30.91 253.63,29.25 252.28,28.12 C251.51,27.46 250.49,27.14 249.22,27.14 C247.32,27.14 245.77,28.07 244.57,29.93 C242.42,33.18 241.34,37.62 241.34,43.27 L241.34,45.18 L256.22,45.18 L256.22,45.19 Z" id="Shape"></path>
            <path d="M296.96,25.12 L296.96,31.74 C299.59,28.9 302.1,26.83 304.51,25.53 C306.92,24.24 309.5,23.59 312.28,23.59 C315.6,23.59 318.35,24.51 320.54,26.35 C322.73,28.19 324.19,30.48 324.92,33.21 C325.5,35.29 325.8,39.28 325.8,45.19 L325.8,65.1 C325.8,69.04 326.16,71.49 326.87,72.46 C327.58,73.43 329.07,74.04 331.33,74.29 L331.33,76.26 L305.46,76.26 L305.46,74.29 C307.39,74.04 308.78,73.23 309.62,71.88 C310.2,70.97 310.5,68.71 310.5,65.1 L310.5,42.35 C310.5,38.16 310.34,35.51 310.01,34.42 C309.68,33.33 309.13,32.48 308.34,31.88 C307.56,31.28 306.69,30.98 305.74,30.98 C302.6,30.98 299.69,33.22 296.99,37.71 L296.99,65.11 C296.99,68.94 297.35,71.36 298.06,72.38 C298.77,73.4 300.09,74.04 302.02,74.29 L302.02,76.26 L276.15,76.26 L276.15,74.29 C278.3,74.07 279.83,73.38 280.74,72.21 C281.36,71.41 281.67,69.04 281.67,65.1 L281.67,36.22 C281.67,32.36 281.31,29.95 280.6,29 C279.89,28.05 278.4,27.43 276.14,27.14 L276.14,25.12 L296.96,25.12 L296.96,25.12 Z" id="Path"></path>
            <polygon id="Path" points="369.2 56.18 337.32 56.18 337.32 44.86 369.2 44.86"></polygon>
            <path d="M440.24,2.09 L396.65,72.09 L410.76,72.09 C417.43,72.09 422.1,71.67 424.76,70.83 C429.1,69.52 432.84,67.1 435.97,63.58 C439.1,60.06 441.27,55.35 442.48,49.44 L444.61,49.44 L441.6,76.24 L373.68,76.24 L417.32,6.13 L406.33,6.13 C402.06,6.13 399.26,6.26 397.91,6.51 C395.36,6.98 392.96,7.92 390.72,9.33 C388.48,10.73 386.62,12.6 385.14,14.94 C383.66,17.27 382.51,20.23 381.67,23.8 L379.65,23.8 L381.67,2.09 L440.24,2.09 Z" id="Path"></path>
            <path d="M493.67,48.85 L465.62,48.85 C465.95,55.63 467.75,60.99 471.03,64.93 C473.55,67.96 476.57,69.47 480.11,69.47 C482.3,69.47 484.28,68.86 486.07,67.64 C487.86,66.42 489.77,64.22 491.81,61.05 L493.67,62.25 C490.9,67.9 487.84,71.9 484.48,74.25 C481.13,76.6 477.24,77.78 472.83,77.78 C465.25,77.78 459.5,74.86 455.6,69.03 C452.46,64.33 450.9,58.49 450.9,51.53 C450.9,43 453.21,36.21 457.82,31.16 C462.43,26.11 467.84,23.59 474.03,23.59 C479.21,23.59 483.7,25.71 487.51,29.96 C491.33,34.2 493.38,40.5 493.67,48.85 Z M480.22,45.19 C480.22,39.32 479.9,35.29 479.26,33.1 C478.62,30.91 477.63,29.25 476.28,28.12 C475.51,27.46 474.49,27.14 473.22,27.14 C471.32,27.14 469.77,28.07 468.57,29.93 C466.42,33.18 465.34,37.62 465.34,43.27 L465.34,45.18 L480.22,45.18 L480.22,45.19 Z" id="Shape"></path>
            <path d="M520.03,25.12 L520.03,65.64 C520.03,69.25 520.45,71.56 521.29,72.56 C522.13,73.56 523.77,74.14 526.21,74.28 L526.21,76.25 L498.59,76.25 L498.59,74.28 C500.85,74.21 502.53,73.55 503.62,72.31 C504.35,71.47 504.71,69.25 504.71,65.64 L504.71,35.78 C504.71,32.17 504.29,29.86 503.45,28.86 C502.61,27.86 500.99,27.28 498.58,27.14 L498.58,25.12 L520.03,25.12 L520.03,25.12 Z M512.37,0.34 C514.74,0.34 516.75,1.17 518.39,2.83 C520.03,4.49 520.85,6.49 520.85,8.82 C520.85,11.15 520.02,13.14 518.36,14.78 C516.7,16.42 514.7,17.24 512.37,17.24 C510.04,17.24 508.05,16.42 506.41,14.78 C504.77,13.14 503.95,11.15 503.95,8.82 C503.95,6.49 504.77,4.49 506.41,2.83 C508.05,1.17 510.04,0.34 512.37,0.34 Z" id="Shape"></path>
            <path d="M551.47,6.41 L551.47,25.11 L563.61,25.11 L563.61,30.52 L551.47,30.52 L551.47,62.07 C551.47,65.02 551.61,66.93 551.88,67.78 C552.15,68.64 552.64,69.33 553.33,69.86 C554.02,70.39 554.66,70.65 555.24,70.65 C557.61,70.65 559.85,68.85 561.97,65.24 L563.61,66.44 C560.66,73.44 555.86,76.94 549.23,76.94 C545.98,76.94 543.24,76.04 541,74.23 C538.76,72.42 537.33,70.41 536.71,68.19 C536.34,66.95 536.16,63.6 536.16,58.13 L536.16,30.51 L529.49,30.51 L529.49,28.6 C534.08,25.36 537.99,21.95 541.22,18.37 C544.45,14.8 547.26,10.81 549.67,6.39 L551.47,6.39 L551.47,6.41 Z" id="Path"></path>
            <path d="M617.87,25.12 L617.87,65.15 C617.87,69.05 618.23,71.48 618.96,72.45 C619.69,73.42 621.17,74.03 623.39,74.28 L623.39,76.25 L602.55,76.25 L602.55,69.41 C600.11,72.33 597.66,74.45 595.22,75.78 C592.78,77.11 590.04,77.78 587.02,77.78 C584.14,77.78 581.58,76.9 579.34,75.13 C577.1,73.36 575.59,71.29 574.83,68.92 C574.06,66.55 573.68,62.41 573.68,56.51 L573.68,36.22 C573.68,32.36 573.32,29.95 572.61,29 C571.9,28.05 570.41,27.43 568.15,27.14 L568.15,25.12 L588.99,25.12 L588.99,60.07 C588.99,63.72 589.16,66.07 589.51,67.12 C589.86,68.18 590.4,68.98 591.15,69.53 C591.9,70.08 592.76,70.35 593.75,70.35 C595.06,70.35 596.25,70 597.3,69.31 C598.76,68.36 600.51,66.45 602.55,63.57 L602.55,36.23 C602.55,32.37 602.19,29.96 601.48,29.01 C600.77,28.06 599.28,27.44 597.02,27.15 L597.02,25.13 L617.87,25.13 L617.87,25.12 Z" id="Path"></path>
            <path d="M651.66,25.12 L651.66,31.74 C654.29,28.9 656.8,26.83 659.21,25.53 C661.62,24.24 664.2,23.59 666.98,23.59 C670.3,23.59 673.05,24.51 675.24,26.35 C677.43,28.19 678.89,30.48 679.62,33.21 C680.2,35.29 680.5,39.28 680.5,45.19 L680.5,65.1 C680.5,69.04 680.86,71.49 681.57,72.46 C682.28,73.43 683.77,74.04 686.03,74.29 L686.03,76.26 L660.16,76.26 L660.16,74.29 C662.09,74.04 663.48,73.23 664.32,71.88 C664.9,70.97 665.2,68.71 665.2,65.1 L665.2,42.35 C665.2,38.16 665.04,35.51 664.71,34.42 C664.38,33.33 663.83,32.48 663.04,31.88 C662.26,31.28 661.39,30.98 660.44,30.98 C657.3,30.98 654.39,33.22 651.69,37.71 L651.69,65.11 C651.69,68.94 652.05,71.36 652.76,72.38 C653.47,73.4 654.79,74.04 656.72,74.29 L656.72,76.26 L630.85,76.26 L630.85,74.29 C633,74.07 634.53,73.38 635.44,72.21 C636.06,71.41 636.37,69.04 636.37,65.1 L636.37,36.22 C636.37,32.36 636.01,29.95 635.3,29 C634.59,28.05 633.1,27.43 630.84,27.14 L630.84,25.12 L651.66,25.12 L651.66,25.12 Z" id="Path"></path>
            <path d="M725.87,25.72 L743.1,25.72 L743.1,31.74 L733.31,31.74 C735.1,33.53 736.34,35.15 737.03,36.61 C737.91,38.58 738.34,40.64 738.34,42.79 C738.34,46.44 737.33,49.6 735.3,52.28 C733.27,54.96 730.52,57.06 727.04,58.57 C723.56,60.08 720.47,60.84 717.77,60.84 C717.55,60.84 715.36,60.75 711.21,60.57 C709.57,60.57 708.19,61.11 707.08,62.18 C705.97,63.26 705.41,64.54 705.41,66.04 C705.41,67.35 705.91,68.43 706.91,69.27 C707.91,70.11 709.54,70.53 711.8,70.53 L721.26,70.42 C728.92,70.42 734.18,71.26 737.06,72.94 C741.18,75.27 743.24,78.86 743.24,83.71 C743.24,86.81 742.29,89.63 740.4,92.16 C738.5,94.69 736.01,96.56 732.91,97.77 C728.21,99.56 722.79,100.45 716.67,100.45 C712.08,100.45 707.88,100 704.09,99.11 C700.3,98.22 697.58,96.98 695.94,95.39 C694.3,93.8 693.48,92.14 693.48,90.39 C693.48,88.71 694.11,87.21 695.37,85.88 C696.63,84.55 698.97,83.43 702.4,82.52 C697.66,80.19 695.29,76.94 695.29,72.79 C695.29,70.27 696.26,67.83 698.19,65.46 C700.12,63.09 703.18,61.03 707.38,59.28 C702.49,57.49 698.96,55.14 696.77,52.23 C694.58,49.31 693.49,45.94 693.49,42.11 C693.49,37.12 695.53,32.79 699.62,29.12 C703.7,25.46 708.95,23.62 715.37,23.62 C718.76,23.59 722.26,24.3 725.87,25.72 Z M713.19,83.8 C709.47,83.8 707.01,84.11 705.81,84.73 C703.73,85.86 702.69,87.39 702.69,89.32 C702.69,91.18 703.77,92.87 705.92,94.38 C708.07,95.89 712.12,96.65 718.06,96.65 C723.13,96.65 727.11,95.98 730.01,94.63 C732.91,93.28 734.36,91.38 734.36,88.94 C734.36,88.03 734.09,87.26 733.54,86.64 C732.56,85.55 731.07,84.8 729.08,84.4 C727.08,84 721.79,83.8 713.19,83.8 Z M716.41,26.98 C714.29,26.98 712.51,28.05 711.05,30.18 C709.59,32.31 708.86,36.73 708.86,43.44 C708.86,48.87 709.58,52.6 711.02,54.62 C712.46,56.64 714.16,57.66 716.13,57.66 C718.32,57.66 720.14,56.66 721.6,54.65 C723.06,52.65 723.79,48.74 723.79,42.95 C723.79,36.42 722.97,31.98 721.33,29.61 C720.17,27.85 718.53,26.98 716.41,26.98 Z" id="Shape"></path>
        </g>
    </g>
</svg>